<svg width="63" height="13" viewBox="0 0 63 13" fill="none" xmlns="http://www.w3.org/2000/svg">
<path d="M8.32812 0.625V8.35938C8.32292 9.43229 7.98438 10.3099 7.3125 10.9922C6.64583 11.6745 5.73958 12.0573 4.59375 12.1406L4.19531 12.1562C2.95052 12.1562 1.95833 11.8203 1.21875 11.1484C0.479167 10.4766 0.104167 9.55208 0.09375 8.375V0.625H1.57812V8.32812C1.57812 9.15104 1.80469 9.79167 2.25781 10.25C2.71094 10.7031 3.35677 10.9297 4.19531 10.9297C5.04427 10.9297 5.69271 10.7031 6.14062 10.25C6.59375 9.79688 6.82031 9.15885 6.82031 8.33594V0.625H8.32812ZM17.625 7.86719C17.625 9.15885 17.3281 10.1979 16.7344 10.9844C16.1406 11.7656 15.3438 12.1562 14.3438 12.1562C13.276 12.1562 12.4505 11.7786 11.8672 11.0234L11.7969 12H10.4688V0H11.9141V4.47656C12.4974 3.7526 13.3021 3.39062 14.3281 3.39062C15.3542 3.39062 16.1589 3.77865 16.7422 4.55469C17.3307 5.33073 17.625 6.39323 17.625 7.74219V7.86719ZM16.1797 7.70312C16.1797 6.71875 15.9896 5.95833 15.6094 5.42188C15.2292 4.88542 14.6823 4.61719 13.9688 4.61719C13.0156 4.61719 12.3307 5.0599 11.9141 5.94531V9.60156C12.3568 10.487 13.0469 10.9297 13.9844 10.9297C14.6771 10.9297 15.2161 10.6615 15.6016 10.125C15.987 9.58854 16.1797 8.78125 16.1797 7.70312ZM22.9609 12.1562C21.8151 12.1562 20.8828 11.7812 20.1641 11.0312C19.4453 10.276 19.0859 9.26823 19.0859 8.00781V7.74219C19.0859 6.90365 19.2448 6.15625 19.5625 5.5C19.8854 4.83854 20.3333 4.32292 20.9062 3.95312C21.4844 3.57812 22.1094 3.39062 22.7812 3.39062C23.8802 3.39062 24.7344 3.7526 25.3438 4.47656C25.9531 5.20052 26.2578 6.23698 26.2578 7.58594V8.1875H20.5312C20.5521 9.02083 20.7943 9.69531 21.2578 10.2109C21.7266 10.7214 22.3203 10.9766 23.0391 10.9766C23.5495 10.9766 23.9818 10.8724 24.3359 10.6641C24.6901 10.4557 25 10.1797 25.2656 9.83594L26.1484 10.5234C25.4401 11.612 24.3776 12.1562 22.9609 12.1562ZM22.7812 4.57812C22.1979 4.57812 21.7083 4.79167 21.3125 5.21875C20.9167 5.64062 20.6719 6.23438 20.5781 7H24.8125V6.89062C24.7708 6.15625 24.5729 5.58854 24.2188 5.1875C23.8646 4.78125 23.3854 4.57812 22.7812 4.57812ZM32.0234 4.84375C31.8047 4.80729 31.5677 4.78906 31.3125 4.78906C30.3646 4.78906 29.7214 5.19271 29.3828 6V12H27.9375V3.54688H29.3438L29.3672 4.52344C29.8411 3.76823 30.513 3.39062 31.3828 3.39062C31.6641 3.39062 31.8776 3.42708 32.0234 3.5V4.84375ZM40.0156 6.74219H35.0859V10.7734H40.8125V12H33.5859V0.625H40.7344V1.85938H35.0859V5.51562H40.0156V6.74219ZM47.6719 12C47.5885 11.8333 47.5208 11.5365 47.4688 11.1094C46.7969 11.8073 45.9948 12.1562 45.0625 12.1562C44.2292 12.1562 43.5443 11.9219 43.0078 11.4531C42.4766 10.9792 42.2109 10.3802 42.2109 9.65625C42.2109 8.77604 42.5443 8.09375 43.2109 7.60938C43.8828 7.11979 44.8255 6.875 46.0391 6.875H47.4453V6.21094C47.4453 5.70573 47.2943 5.30469 46.9922 5.00781C46.6901 4.70573 46.2448 4.55469 45.6562 4.55469C45.1406 4.55469 44.7083 4.6849 44.3594 4.94531C44.0104 5.20573 43.8359 5.52083 43.8359 5.89062H42.3828C42.3828 5.46875 42.5312 5.0625 42.8281 4.67188C43.1302 4.27604 43.5365 3.96354 44.0469 3.73438C44.5625 3.50521 45.1276 3.39062 45.7422 3.39062C46.7161 3.39062 47.4792 3.63542 48.0312 4.125C48.5833 4.60938 48.8698 5.27865 48.8906 6.13281V10.0234C48.8906 10.7995 48.9896 11.4167 49.1875 11.875V12H47.6719ZM45.2734 10.8984C45.7266 10.8984 46.1562 10.7812 46.5625 10.5469C46.9688 10.3125 47.263 10.0078 47.4453 9.63281V7.89844H46.3125C44.5417 7.89844 43.6562 8.41667 43.6562 9.45312C43.6562 9.90625 43.8073 10.2604 44.1094 10.5156C44.4115 10.7708 44.7995 10.8984 45.2734 10.8984ZM53.1172 1.5V3.54688H54.6953V4.66406H53.1172V9.90625C53.1172 10.2448 53.1875 10.5 53.3281 10.6719C53.4688 10.8385 53.7083 10.9219 54.0469 10.9219C54.2135 10.9219 54.4427 10.8906 54.7344 10.8281V12C54.3542 12.1042 53.9844 12.1562 53.625 12.1562C52.9792 12.1562 52.4922 11.9609 52.1641 11.5703C51.8359 11.1797 51.6719 10.625 51.6719 9.90625V4.66406H50.1328V3.54688H51.6719V1.5H53.1172ZM61.3125 9.75781C61.3125 9.36719 61.1641 9.0651 60.8672 8.85156C60.5755 8.63281 60.0625 8.44531 59.3281 8.28906C58.599 8.13281 58.0182 7.94531 57.5859 7.72656C57.1589 7.50781 56.8411 7.2474 56.6328 6.94531C56.4297 6.64323 56.3281 6.28385 56.3281 5.86719C56.3281 5.17448 56.6198 4.58854 57.2031 4.10938C57.7917 3.63021 58.5417 3.39062 59.4531 3.39062C60.4115 3.39062 61.1875 3.63802 61.7812 4.13281C62.3802 4.6276 62.6797 5.26042 62.6797 6.03125H61.2266C61.2266 5.63542 61.0573 5.29427 60.7188 5.00781C60.3854 4.72135 59.9635 4.57812 59.4531 4.57812C58.9271 4.57812 58.5156 4.69271 58.2188 4.92188C57.9219 5.15104 57.7734 5.45052 57.7734 5.82031C57.7734 6.16927 57.9115 6.43229 58.1875 6.60938C58.4635 6.78646 58.9609 6.95573 59.6797 7.11719C60.4036 7.27865 60.9896 7.47135 61.4375 7.69531C61.8854 7.91927 62.2161 8.1901 62.4297 8.50781C62.6484 8.82031 62.7578 9.20312 62.7578 9.65625C62.7578 10.4115 62.4557 11.0182 61.8516 11.4766C61.2474 11.9297 60.4635 12.1562 59.5 12.1562C58.8229 12.1562 58.224 12.0365 57.7031 11.7969C57.1823 11.5573 56.7734 11.224 56.4766 10.7969C56.1849 10.3646 56.0391 9.89844 56.0391 9.39844H57.4844C57.5104 9.88281 57.7031 10.2682 58.0625 10.5547C58.4271 10.8359 58.9062 10.9766 59.5 10.9766C60.0469 10.9766 60.4844 10.8672 60.8125 10.6484C61.1458 10.4245 61.3125 10.1276 61.3125 9.75781Z" fill="white"/>
</svg>
